<svg xmlns="http://www.w3.org/2000/svg" xmlns:xlink="http://www.w3.org/1999/xlink" width="201" height="180" viewBox="0 0 201 180">
    <defs>
        <path id="prefix__a" d="M1.162 0.982L53.234 0.982 53.234 20.412 1.162 20.412z"/>
    </defs>
    <g fill="none" fill-rule="evenodd">
        <g transform="translate(35.258 159.294)">
            <mask id="prefix__b" fill="#fff">
                <use xlink:href="#prefix__a"/>
            </mask>
            <path fill="#F4F6F7" d="M41.947 2.043c-.081.373-.157.76-.24 1.121.29.21.534.427.725.635.798.88 1.176 2.013 1.063 3.195-.228 2.409-2.325 4.927-6.795 8.163-2.16 1.565-4.43 2.392-6.566 2.392-1.43 0-2.79-.363-4.047-1.078-1.054-.6-1.705-1.304-2.11-1.993-1.362.609-2.73.961-4.049.961-1.43 0-2.789-.365-4.047-1.078-2.02-1.15-2.581-2.68-2.696-3.758-.123-1.148.215-2.236.695-3.162-.408-.762-.317-1.718.325-2.356.015-.017.03-.034.047-.049l1.72-1.62c.17-.163.76-.684 1.664-1.13 0-.441-.015-.868-.02-1.304C7.983 2.46 1.162 6.089 1.162 10.342c0 5.561 11.659 10.07 26.037 10.07 14.38 0 26.035-4.509 26.035-10.07 0-3.446-4.473-6.482-11.287-8.299" mask="url(#prefix__b)"/>
        </g>
        <path fill="#E8EBEF" d="M99.854 117.274c.304-.918-3.376-2.111-3.376-2.111s.88.193 1.707.193c.917 0 1.763-.238 1.264-1.236-.378-.761-2.919-1.383-5.816-1.388 1.075-1.799.722-2.914.006-2.914-.15 0-.317.052-.492.154-.814.486-2.332 2.201-3.093 3.094-1.012.506-4.612 3.177-5.74 4.02-.529.68-1.288 1.771-2.24 3.447-.102.176-.25.3-.417.388.692 2.169 1.316 4.208 1.88 6.12 4.862-.82 9.072-7.328 9.072-7.328s1.943.57 3.43.57c.706 0 1.31-.127 1.556-.507.368-.564-1.818-1.975-1.818-1.975s.794.082 1.685.082c1.046 0 2.225-.113 2.392-.609zm-24.694-9.031c-3.884 1.178-8.155 1.777-12.811 1.777-3.532 0-6.855-.324-9.99-.935-2.154 8.204-5.329 21.04-8.315 35.978 0 0 6.876 2.724 18.423 2.724 6.466 0 14.397-.854 23.408-3.522 0 0-2.797-14.649-10.715-36.022zm2.134 40.162c-4.359.81-8.684 1.26-12.95 1.364.222 3.409.263 7.887-.26 13.389.547-.104 1.169-.18 1.854-.18 1.067 0 2.093.178 3.047.53 2.245.826 3.75 2.129 4.704 3.253 1.377-3.917 2.802-11.698 3.605-18.356zm-.55 17.677c.045-.482-.08-.937-.346-1.34-.434 1.643-.89 3.06-1.353 4.074l.054.118c.013.034.013.07.026.106.915-1.032 1.533-2.041 1.62-2.958zm-4.015 2.735c-.65-.972-1.993-2.516-4.44-3.416-.815-.302-1.622-.406-2.351-.406-.819 0-1.535.131-2.077.274l-.015.147s-.124.069-.287.176c.404.62.61 1.075.629 1.127.009.022.009.046.018.068.39.028.8.078 1.245.182 2.255.535 4.39 1.689 5.413 3.775.728-.498 1.359-1.147 1.865-1.927zm-3.371 4.866c-1.127.356-2.263.523-3.29.523-2.016 0-3.714-.57-4.851-1.544-.067.045-.136.086-.204.128.267.429.686.841 1.33 1.207 1.006.573 2.036.814 3.05.814 1.387 0 2.738-.462 3.965-1.128zm-7.275-3.058c.676.998 2.218 1.564 3.984 1.564.97 0 2.005-.172 2.992-.527-.789-1.622-2.6-2.383-4.072-2.728-.387-.093-.772-.126-1.152-.137-.026.026-.039.061-.065.087l-1.687 1.74zm.199-20.823c-3.05-.009-5.771-.198-8.148-.478.436 3.106.775 6.979.79 11.61.277-.037.562-.06.861-.06.77 0 1.54.138 2.29.419 1.705.629 2.986 1.53 3.921 2.42.507-4.93.585-9.568.286-13.91zm-1.798 15.261c-.75-.686-1.758-1.382-3.107-1.88-.566-.21-1.1-.293-1.592-.293-.313 0-.603.041-.88.1l-.003.435s-.75.488-1.3 1.395c.047 0 .077-.015.123-.015.384 0 .806.047 1.26.153 1.69.4 3.122 1.07 4.13 2.241.01-.523.205-1.039.612-1.421l.757-.715zm-7.223 3.051c.398 1.23 1.917 1.876 3.732 1.876.43 0 .878-.05 1.327-.128-.507-1.56-1.622-2.427-3.799-2.941-.274-.065-.543-.098-.796-.098-.258 0-.477.037-.671.085.013.377.065.774.207 1.206zm5.272 3.756c-.521.083-1.04.137-1.54.137-2.832 0-4.997-1.252-5.652-3.27-.108-.333-.182-.658-.234-.974-.074.008-.145.04-.219.04-.015 0-.026-.006-.04-.008-.635 1.31-.769 2.919 1.289 4.092 1.006.571 2.036.812 3.05.812 1.16 0 2.289-.335 3.346-.83zm-15.055-34.053c2.54-11.97 5.092-22.23 6.922-29.2-.703-.17-1.427-.311-2.108-.513-2.62 7.2-6.391 16.64-9.7 21.321 0 0-3.89 1.526-3.631 3.294.093.625.523.828 1.037.828.95 0 2.197-.685 2.197-.685s-2.01 2.321-1.299 3.218c.141.176.312.248.498.248.744 0 1.7-1.158 1.7-1.158s-1.68 2.476-.804 2.925c.083.043.184.061.293.061 1.05 0 3.153-1.752 3.153-1.752s-.312 1.704.692 2.053c.05.016.1.024.152.024.293 0 .605-.286.898-.664zm18.87-29.814c19.567 0 29.448-10.827 34.147-24.43-.123.017-.238.036-.377.036-.416 0-.88-.091-1.249-.42-.425-.38-.521-.902-.467-1.262 3.414-11.651 2.249-23.223.592-31.114-29.489-4.988-52.568-2.232-66.966 1.062-1.126 6.615-3.156 21.398-.662 30.221.094.344.003.711-.242.969s-.608.375-.955.288c-.008-.002-.43-.1-.92-.195 5.25 13.524 15.954 24.845 37.1 24.845zM25.498 27.361c.178.084.37.121.555.121.512 0 1-.291 1.226-.787 1.056-2.321 3.036-5.025 5.014-6.547-.26 1.544-.503 3.137.128 4.627.173.406.533.703.967.794.433.089.88-.04 1.199-.343 2.843-2.706 5.428-6.085 7.708-9.065.453-.592.34-1.435-.248-1.886-.59-.45-1.435-.34-1.887.25-1.622 2.122-3.404 4.449-5.293 6.548l.1-.615c.147-.877.301-1.788.294-2.698-.004-.421-.203-.813-.539-1.065-.335-.252-.77-.334-1.172-.217-3.855 1.091-7.327 6.042-8.72 9.102-.308.676-.01 1.473.668 1.781zm54.781 78.835c-1.039.508-2.117.96-3.227 1.366 1.442 3.898 2.724 7.586 3.843 10.998 1.316-2.178 2.25-3.268 2.7-3.722-.633-2.645-1.987-5.643-3.316-8.642zm21.34 9.854c.3.588.353 1.25.147 1.868-.347 1.036-1.21 1.53-2.11 1.767-.01.421-.135.831-.367 1.19-.615.946-1.71 1.424-3.25 1.424-.866 0-1.813-.146-2.57-.3-1.573 2.097-5.105 6.127-9.369 6.968 2.64 9.197 3.735 14.806 3.758 14.921.195 1.02-.414 2.017-1.409 2.31-2.358.7-4.719 1.285-7.07 1.782-.182 1.553-.378 3.034-.56 4.28-.479 3.3-1.123 6.988-1.854 10.183.29.21.534.425.725.635.798.878 1.177 2.015 1.064 3.193-.228 2.409-2.325 4.929-6.798 8.165-2.158 1.563-4.429 2.392-6.561 2.392-1.433 0-2.793-.365-4.047-1.078-1.056-.603-1.708-1.304-2.112-1.995-1.362.61-2.73.962-4.047.962-1.433 0-2.793-.364-4.048-1.079-2.02-1.15-2.583-2.677-2.698-3.755-.122-1.151.216-2.238.694-3.163-.406-.764-.315-1.718.327-2.358.015-.017.03-.034.046-.046l1.722-1.62c.17-.166.757-.689 1.661-1.132.013-4.445-.304-8.616-.896-12.53-5.404-.822-8.505-2.02-8.698-2.097-.905-.36-1.425-1.317-1.234-2.271.284-1.42.57-2.813.856-4.194-.134.017-.253.026-.34.026-.278 0-.55-.046-.814-.137-.481-.165-.873-.43-1.179-.76-.67.337-1.366.572-2.004.572-.436 0-.846-.096-1.212-.284-.638-.324-1.085-.89-1.267-1.594-.026-.105-.046-.213-.06-.324-.274-.164-.52-.379-.727-.639-.495-.621-.648-1.312-.588-2.004-.947-.384-1.6-1.21-1.763-2.316-.399-2.72 2.676-4.487 4.298-5.216 3.097-4.636 6.62-13.482 9.126-20.372-6.155-2.182-11.392-5.719-15.586-10.683-3.498-4.14-6.02-8.964-7.838-13.962C6.589 80.124.47 72.532.213 72.2c-.322-.416-.274-1.008.114-1.362 5.64-5.172 8.93-10.75 12.366-28.479 3.7-19.069 11.048-30.51 23.83-37.091C47.21-.234 60.043.12 60.591.156c28.847-2.01 49.372 15.73 53.403 46.326 2.908 22.075 9.709 24.217 9.775 24.235.351.1.635.383.72.739.088.354-.01.731-.28.98C117.134 79 107.54 81.29 98.801 83.11c-1.653 5.118-3.987 9.925-7.248 14.033-2.683 3.381-5.862 6.074-9.479 8.128.095.217.19.44.286.655 1.218 2.739 2.388 5.376 3.056 7.842 1.209-.876 2.526-1.8 3.339-2.284 2.199-2.552 3.067-3.07 3.359-3.244.482-.288 1.01-.438 1.525-.438.957 0 1.817.503 2.294 1.345.204.358.423.936.399 1.732 1.978.25 4.188.866 4.923 2.338.54 1.082.376 1.939.14 2.472.088.118.162.237.223.36zm61.887 6.287l.573.784h1.32l-1.4-1.59H163l-1.4 1.59h1.319l.586-.784zm-2.74 8.573h5.117v-1.453h-3.275v-1.47h3.064v-1.45h-3.064v-1.35h3.275v-1.451h-5.118v7.174zm-3.104-2.953c0 .51-.113.906-.341 1.186-.228.277-.555.416-.978.416-.436 0-.77-.14-.998-.416-.229-.28-.342-.675-.342-1.186v-4.221h-1.842v4.15c0 1.021.267 1.795.805 2.324.536.527 1.33.789 2.377.789 1.028 0 1.815-.267 2.362-.8.548-.534.82-1.305.82-2.312v-4.151h-1.863v4.221zm-7.615-1.43h-2.902v-2.791h-1.854v7.174h1.854v-2.903h2.902v2.903h1.854v-7.174h-1.854v2.79zm-11.706-1.259h2.138v5.642h1.913v-5.642h2.134v-1.532h-6.185v1.532zm-8.48 5.642h5.118v-1.453h-3.276v-1.47h3.062v-1.45h-3.062v-1.35h3.276v-1.451h-5.118v7.174zm4.865-9.379h-1.633l-1.046 1.59h1.096l1.583-1.59zm-9.276 7.018l-2.065-4.813h-1.966l3.264 7.174h1.5l3.264-7.174h-1.904l-2.093 4.813zm46.455-17.426c0-2.307-1.876-4.18-4.181-4.18H133.11l-2.091 2.326h34.812c2.275 0 4.127 1.852 4.127 4.127v15.845l1.945-2.161v-15.957zm0 27.057l-1.945 2.162v.436c0 2.27-1.839 4.116-4.107 4.127l-2.093 2.33h3.964c2.305 0 4.18-1.877 4.18-4.182v-4.873zm-14.632 5.165l11.126-12.368v-17.581c0-1.416-1.152-2.566-2.566-2.566h-36.219l-10.71 11.907v18.041c0 1.416 1.15 2.567 2.564 2.567h35.805zm-1.405 1.562h-34.4c-2.275 0-4.126-1.852-4.126-4.129v-16.306l-1.944 2.162v16.42c0 2.304 1.874 4.18 4.179 4.18h34.198l2.093-2.327zm-40.47-29.371l1.946-2.166c.015-2.099 1.607-3.813 3.649-4.053l2.134-2.373h-3.55c-2.305 0-4.18 1.872-4.18 4.179v4.413zm58.362-4.413v31.93c0 3.33-2.707 6.037-6.036 6.037h-48.147c-3.328 0-6.035-2.708-6.035-6.037v-31.93c0-3.327 2.707-6.035 6.035-6.035h48.147c3.329 0 6.036 2.708 6.036 6.035zm15.675-33.34l-1.093-2.549-1.098 2.55h2.191zm-.286-4.794l3.775 8.048h-2.09l-.712-1.661h-3.565l-.718 1.66h-2.127l3.765-8.047h1.672zm-7.933 4.737c0 .572-.128 1.013-.384 1.327-.256.314-.621.47-1.095.47-.491 0-.864-.156-1.12-.47-.256-.314-.384-.755-.384-1.327V72.99h-2.068v4.657c0 1.145.3 2.012.904 2.606.603.592 1.492.885 2.668.885 1.151 0 2.034-.299 2.65-.896.615-.6.92-1.464.92-2.595V72.99h-2.09v4.737zm-10.545.757l-2.405-5.494h-1.663v8.048h1.843v-3.643l1.536 3.643h1.347l1.528-3.686.009 3.686h1.852v-8.048h-1.65l-2.397 5.494zm-8.746-7.968h-1.832l-1.174 1.787h1.232l1.774-1.787zm-5.46 10.522h5.744v-1.628h-3.674v-1.651h3.436v-1.626h-3.436v-1.514h3.674v-1.63h-5.743v8.049zm-4.947-2.646l-2.317-5.402h-2.207l3.663 8.048h1.685l3.661-8.048h-2.137l-2.348 5.402zm46.696-17.256c0-2.305-1.876-4.18-4.18-4.18H159.42l-2.092 2.326h34.81c2.278 0 4.13 1.852 4.13 4.129v15.845l1.944-2.162V61.135zm0 27.057l-1.944 2.162v.438c0 2.268-1.84 4.114-4.107 4.125l-2.095 2.329h3.966c2.304 0 4.18-1.876 4.18-4.18v-4.874zm-14.632 5.165l11.127-12.369V63.41c0-1.416-1.152-2.567-2.568-2.567h-36.217L145.21 72.751v18.041c0 1.414 1.15 2.565 2.566 2.565h35.805zm-1.406 1.562h-34.399c-2.275 0-4.125-1.852-4.125-4.127V74.484l-1.945 2.162v16.42c0 2.304 1.873 4.18 4.18 4.18h34.196l2.093-2.327zm-40.469-29.372l1.947-2.163c.013-2.1 1.607-3.816 3.646-4.055l2.136-2.373h-3.55c-2.306 0-4.179 1.874-4.179 4.179v4.412zm58.363-4.412v31.93c0 3.33-2.707 6.037-6.036 6.037h-48.148c-3.327 0-6.034-2.708-6.034-6.037v-31.93c0-3.328 2.707-6.035 6.034-6.035h48.148c3.329 0 6.036 2.707 6.036 6.035zM72.523 85.843c-3.826 1.533-7.49 2.062-10.68 2.062-1.461 0-2.816-.112-4.052-.28-3.726 2.365-4.74 5.581-4.75 5.615-.023.08-.065.146-.106.215 1.373 2.735 3.938 4.878 8.668 4.878.154 0 .313-.001.473-.007 9.313-.27 10.588-7.718 10.447-12.483zM55.08 87.125c-1.622-.375-2.854-.788-3.596-1.076-.017 1.455.105 3.112.497 4.745.603-1.05 1.581-2.387 3.099-3.669zm-3.489-3.214c1.663.728 10.615 4.168 20.775-.182-.132-1.095-.29-1.807-.29-1.807s-2.594 2.056-10.202 2.197c-.212.004-.414.006-.618.006-7.119 0-9.373-2.346-9.373-2.346s-.17.852-.292 2.132zm10.542 16.432c-.178.006-.358.008-.53.008-3.971 0-7.056-1.32-9.17-3.918-4.462-5.489-2.606-14.678-2.525-15.068.154-.73.698-1.317 1.418-1.523.182-.052.371-.08.557-.08.54 0 1.069.217 1.455.62.016.018 2.026 1.725 7.918 1.725.19 0 .382-.001.579-.005 6.587-.124 8.985-1.76 8.987-1.76.365-.287.807-.437 1.254-.437.223 0 .447.039.664.113.654.228 1.144.776 1.301 1.447.086.362 2.021 8.956-2.236 14.482-2.15 2.793-5.405 4.272-9.672 4.396zm4.964-47.217c.09 0 .177-.013.266-.038.833-.228 1.2-.311 2.019-.424 1.39-.195 2.204-.244 3.36-.01.551.099 1.077-.245 1.186-.792.11-.548-.247-1.078-.79-1.188-1.565-.311-2.704-.195-4.033-.009-.917.128-1.373.23-2.273.477-.536.146-.854.701-.707 1.24.124.447.529.744.972.744zm-16.322.664c1.529-.534 3.576-.735 4.7.028.175.117.371.172.566.172.323 0 .64-.156.835-.443.314-.46.193-1.088-.269-1.401-1.822-1.236-4.554-.947-6.502-.258-.525.184-.802.76-.618 1.286.186.523.766.8 1.288.616zm22.286 8.146c-.684.29-1.003 1.078-.716 1.761.202.483.123 1.329.006 2.142-.232.037-.464.074-.69.113-.695.111-1.337.193-1.936.247-.024-.108-.033-.217-.084-.32-.128-.265-.343-.99-.428-1.532-.115-.735-.798-1.225-1.539-1.12-.733.118-1.234.806-1.117 1.54.102.656.371 1.68.665 2.287.087.178.235.299.38.418-.004.039-.024.068-.024.107-.002.102.007.205.03.301-.18.238-.279.534-.27.85.015.495.301.931.72 1.15l-.113.078c-.399.282-.612.758-.56 1.244.039.365.226.692.507.913-.197.28-.286.634-.23.987.066.417.32.77.679.967l-.041.05c-.438.57-.35 1.384.198 1.848.986.833 2.467 1.119 4.172 1.119 1.559 0 3.307-.238 5.036-.51l.82-.123c.733-.106 1.246-.787 1.14-1.521-.013-.09-.067-.156-.095-.236-.005-.054.011-.104 0-.156-.06-.3-.228-.542-.44-.733.4-.256.657-.701.626-1.202-.015-.255-.102-.488-.238-.683.169-.23.267-.516.262-.822-.011-.563-.368-1.038-.861-1.229.219-.263.334-.608.306-.968-.028-.34-.18-.646-.414-.867.061-.143.1-.297.112-.458l-.002-.004c.065-.091.104-.152.178-.256.787-1.115 1.406-2.021 1.653-2.632.275-.688-.06-1.471-.748-1.748-.688-.274-1.471.058-1.75.748-.148.368-.963 1.527-1.354 2.084-.006.008-.01.015-.017.022-.579-.142-1.18-.21-1.79-.211.105-.965.12-2.004-.272-2.928-.289-.685-1.072-1.002-1.76-.717zM58.775 79.838h.009c.553 0 1.004-.445 1.01-1 0-.011.016-.03.02-.041l2.429-.078c.072.102.14.225.198.366.221.51.813.747 1.327.525.51-.221.746-.813.525-1.327-.686-1.589-2.09-2.398-3.74-2.143-1.355.206-2.764 1.267-2.777 2.68-.005.556.442 1.012.999 1.018zm-5.367-2.886c-1.731.271-3.476.509-5.034.509-1.71 0-3.192-.284-4.18-1.123-.547-.466-.632-1.277-.194-1.846.013-.015.024-.032.037-.048-.353-.197-.603-.548-.67-.962-.058-.354.032-.707.232-.989-.286-.22-.473-.55-.514-.916-.052-.487.161-.962.56-1.244l.114-.078c-.422-.219-.707-.651-.724-1.15-.01-.29.083-.557.234-.783-.525-1.078-1.194-2.127-1.908-2.966-.482-.564-.416-1.414.15-1.896.566-.48 1.414-.414 1.895.15.74.869 1.395 1.898 1.97 2.977.61-.052 1.266-.143 1.977-.258.27-.047.54-.09.815-.132.113-.911-.041-1.852-.459-2.62-.35-.655-.107-1.47.544-1.824.655-.346 1.472-.11 1.824.543.6 1.11.867 2.381.807 3.667.644.008 1.275.087 1.88.258.505-.874.872-1.833 1.011-2.707.117-.733.806-1.233 1.54-1.116.736.117 1.235.806 1.118 1.54-.23 1.439-.846 2.962-1.739 4.287-.046.069-.12.102-.18.16l-.004.022c.236.223.392.529.42.872.03.358-.088.704-.306.965.493.193.844.666.855 1.225.007.308-.093.597-.264.828.14.196.225.432.242.688.031.5-.229.946-.628 1.2.214.192.383.435.442.734.01.05-.005.1-.002.15.028.082.086.148.097.24.106.734-.405 1.415-1.141 1.52l-.817.123z"/>
    </g>
</svg>
